<svg width="390" height="535" viewBox="0 0 390 535" fill="none" xmlns="http://www.w3.org/2000/svg">
<path d="M204.8 504.003C203.425 504.722 202.761 505.413 201.071 505.713C196.499 506.526 191.799 506.291 187.202 507.023C185.609 507.276 180.82 507.645 182.428 507.804C184.71 508.029 187.11 507.951 189.41 508.1C192.293 508.286 195.249 508.317 198.103 508.754C199.962 509.039 200.721 509.2 198.293 510.063C191.534 512.467 184.33 511.7 177.274 512.006C175.326 512.091 173.398 512.62 171.456 512.83C168.633 513.135 165.818 512.962 163.001 513.21C157.828 513.664 152.719 513.886 147.516 513.886C143.249 513.886 138.982 513.886 134.715 513.886C132.178 513.886 130.196 514.316 127.661 513.907C126.496 513.718 128.279 510.716 128.279 509.62C128.279 505.366 127.514 501.612 126.569 497.457C124.269 487.354 125.286 476.448 125.286 466.204C125.286 459.197 126.177 452.381 127.329 445.468C127.76 442.881 127.851 440.125 127.851 437.507C127.851 436.554 127.475 435.628 128.872 435.628C134.527 435.628 140.316 436.604 145.972 436.895C155.899 437.405 165.513 437.61 175.398 436.726C184.782 435.887 194.252 436.335 203.518 434.656C209.717 433.534 215.923 432.589 222.09 431.32C229.291 429.838 236.901 430.07 244.225 429.124C247.675 428.678 251.157 428.73 254.556 427.963C257.371 427.327 260.153 426.554 262.963 425.893C263.792 425.698 266.561 424.424 267.357 424.626C267.775 424.732 265.205 429.09 265.053 429.377C260.702 437.598 256.6 445.315 256.527 454.59C256.475 461.188 258.415 466.942 260.707 473.131C262.574 478.173 262.084 483.785 262.084 489.01C262.084 495.155 262.939 501.255 262.939 507.403C262.939 508.55 262.939 509.697 262.939 510.845C262.939 511.931 262.377 507.06 262.322 506.621C260.531 492.374 260.128 478.11 259.187 463.797C258.884 459.186 258.241 453.332 260.184 448.889C260.593 447.954 260.814 446.905 261.419 446.059C262.384 444.711 261.657 447.057 261.657 448.065C261.657 460.064 258.002 471.874 260.042 483.942C260.939 489.247 263.256 494.287 264.127 499.611C264.555 502.228 265.168 505.7 264.626 508.353C264.379 509.558 263.269 511.252 262.084 509.789C260.933 508.367 259.715 507.71 257.786 507.424C252.419 506.629 246.487 505.947 241.137 507.255C236.373 508.42 232.151 510.35 227.125 510.76C221.547 511.216 214.923 511.398 209.36 510.76C208.4 510.65 206.715 510.465 208.79 510.465C216.32 510.465 223.637 509.309 231.044 508.205C232.17 508.037 252.213 505.996 251.753 503.75C251.355 501.802 247.262 499.109 245.982 497.584C240.347 490.865 236.506 483.503 234.392 475.327C233.347 471.285 232.669 467.197 232.16 463.079C232.027 462.005 232.298 458.962 231.637 459.87C230.728 461.119 230.482 463.553 230.07 464.895C228.524 469.936 226.761 474.908 224.987 479.888C222.974 485.542 220.237 491.89 220.237 497.921C220.237 499.042 220.955 498.247 221.306 497.731C222.881 495.418 223.527 492.492 224.275 489.918C227.878 477.515 230.401 464.919 231.899 452.183C232.359 448.266 232.691 444.334 233.205 440.421C233.341 439.38 233.49 438.407 233.418 440.231C233.153 446.971 230.829 453.522 229.072 460.038C226.963 467.865 224.571 475.62 222.232 483.393C221.78 484.896 221.124 486.361 220.712 487.87C220.412 488.97 221.701 485.78 222.09 484.703C225.1 476.368 228.829 465.587 225.985 456.829C224.157 451.2 217.527 455.814 215.321 458.497C211.491 463.155 209.772 468.925 208.339 474.461C206.684 480.852 205.79 487.297 205.513 493.846C205.387 496.825 205.123 500.084 205.869 503.032C205.922 503.241 206.306 504.494 206.534 503.581C208.643 495.141 208.559 486.09 208.838 477.502C209.129 468.51 210.018 458.523 207.033 449.776C206.395 447.907 205.853 447.824 205.038 449.649C203.307 453.521 201.508 457.314 199.528 461.094C195.753 468.299 191.831 475.471 188.84 482.971C188.06 484.927 187.203 486.919 186.893 488.989C186.743 489.987 186.845 486.976 186.845 485.97C186.845 476.463 186.189 466.967 183.33 457.758C182.469 454.982 181.411 452.164 180.1 449.522C179.402 448.115 179.584 450.369 179.578 450.621C179.227 464.543 176.412 478.414 175.73 492.347C175.153 504.159 174.657 468.553 171.432 457.082C171.246 456.42 169.451 449.388 167.347 451.909C165.756 453.815 164.975 456.472 164.117 458.666C161.97 464.155 160.346 469.756 159.177 475.475C157.544 483.458 156.712 491.849 157.776 499.949C157.907 500.945 158.391 502.885 157.918 500.329C157.222 496.566 156.493 492.798 155.686 489.053C153.483 478.831 149.728 469.049 147.088 458.94C146.752 457.653 146.41 456.367 146.233 455.055C146.107 454.12 145.863 456.91 145.711 457.842C144.66 464.274 143.799 470.61 143.692 477.122C143.608 482.234 143.053 487.718 144.713 492.685C145.114 493.882 145.332 494.819 146.803 495.071C152.183 495.991 158.727 494.941 163.856 493.593C171.494 491.584 178.847 488.388 183.283 482.295C184.611 480.471 185.489 478.518 185.895 476.383C186.075 475.44 185.55 478.269 185.373 479.212C184.081 486.104 182.527 492.981 181.478 499.906C181.272 501.265 180.887 504.863 180.86 501.089C180.805 493.307 179.87 485.414 176.633 478.114C172.516 468.83 164.556 461.769 155.923 455.667C154.93 454.965 145.709 447.948 144.333 449.987C143.22 451.637 142.162 453.749 141.317 455.541C140.484 457.308 139.778 459.262 140.533 461.179C141.327 463.191 143.762 463.214 145.378 462.023C148.698 459.578 149.582 454.805 149.653 451.212C149.696 449.083 149.653 448.296 149.653 450.789" stroke="#99D056" stroke-width="36" stroke-linecap="round"/>
<path d="M228.963 111.756C236.338 111.756 238.66 106.067 239.999 100.333C241.625 93.3656 243.65 84.827 240.74 77.926C238.456 72.5111 234.969 76.7655 233.328 80.0495C226.111 94.487 217.139 117.838 222.374 133.797C224.044 138.887 227.803 134.085 229.045 131.601C235.016 119.655 236.81 106.27 239.34 93.5231C240.254 88.9191 250.201 64.6074 239.01 63.2808C229.779 62.1864 223.506 75.2097 220.398 80.7086C212.858 94.0463 206.754 108.929 204.42 123.765C204.277 124.678 201.979 137.256 205.573 136.8C214.335 135.687 219.355 113.82 220.892 108.534C226.041 90.8261 228.246 70.2137 223.857 52.1504C223.218 49.5239 217.929 36.9603 212.327 42.0452C204.142 49.4738 200.746 63.6117 198.079 73.1663C193.345 90.1242 190.164 108.129 189.102 125.596C187.672 149.112 199.549 130.051 203.679 118.493C206.189 111.469 220.967 53.4838 202.197 55.1527C193.209 55.9518 187.34 68.2718 183.584 74.045C173.568 89.4414 163.509 105.858 158.218 123.106C157.902 124.135 152.563 141.963 156.653 141.559C166.473 140.589 173.294 116.834 175.348 110.731C176.936 106.012 189.471 51.1253 180.784 51.1253C173.531 51.1253 165.872 76.1302 164.477 81.3676C162.519 88.7171 162.253 95.6986 162.253 103.189C162.253 109.054 162.75 116.1 156.324 118.64C155.084 119.13 148.762 121.916 147.759 120.69C146.4 119.029 152.08 107.449 153.359 105.459C155.633 101.921 158.714 91.3132 154.1 88.0312C151.584 86.2418 149.426 76.9262 151.135 74.1914C155.047 67.9302 153.963 78.465 154.841 82.7589C156.177 89.2893 155.256 99.0845 158.136 105.166C159.403 107.843 155.836 109.631 153.688 107.509C151.476 105.324 153.655 98.1218 154.512 95.6467C158.359 84.5293 151.876 72.7288 151.876 61.6698C151.876 51.5337 158.95 33.691 171.23 32.5991C178.02 31.9954 190.003 29.483 196.349 27.1071C205.317 23.75 218.939 26.082 228.633 26.082C233.238 26.082 243.663 27.4854 247.493 29.3771C251.781 31.4951 260.408 30.0362 265.282 30.0362C281.614 30.0362 275.214 49.226 280.107 57.0566C283.739 62.8698 282.33 70.7321 282.33 77.1937C282.33 84.2451 285.295 91.3713 285.295 98.8686C285.295 118.275 286.778 137.326 286.778 156.571C286.778 165.915 285.181 173.905 283.73 182.932C283.094 186.893 280.848 190.738 280.848 194.795C280.848 198.064 281.926 203.086 280.107 205.998C277.596 210.016 279.365 218.526 279.365 223.06C279.365 232.635 274.931 226.319 267.424 228.405C263.396 229.524 257.881 227.965 254.494 230.675C252.67 232.134 249.177 233.085 246.752 234.044C239.14 237.052 226.858 234.357 218.586 235.948C212.916 237.038 207.231 238.279 201.62 239.609C197.281 240.638 192.756 243.563 188.196 243.563C178.886 243.563 169.993 242.245 160.689 242.245C157.407 242.245 148.932 242.76 146.276 240.634C144.382 239.118 145.097 234.943 144.135 233.019C141.681 228.109 143.257 222.374 144.135 217.202C145.26 210.573 143.488 203.724 145.123 197.138C147.495 187.586 153.873 179.022 156.324 169.458C157.281 165.721 158.282 154.226 157.806 158.035C157.141 163.359 156.517 168.659 155.994 173.998C155.248 181.628 153.51 189.172 153.359 196.845C153.277 200.977 153.286 202.311 153.359 196.845C153.554 182.081 157.806 167.674 157.806 152.909C157.806 144.064 156.829 170.58 156.406 179.417C155.997 187.973 156.819 200.526 160.03 184.03C161.72 175.346 163.736 166.137 163.736 157.303C163.736 156.459 163.993 153.154 162.83 155.912C159.19 164.542 157.085 173.865 154.182 182.712C153.596 184.5 149.686 204.147 147.429 204.021C144.519 203.859 143.021 193.079 141.829 190.84C138.373 184.353 131.837 177.571 136.723 169.751C141.386 162.288 145.947 159.605 145.947 150.639C145.947 148.471 144.464 142.1 144.464 144.269C144.464 155.814 144.464 167.359 144.464 178.905C144.464 187.867 145.815 197.74 144.382 206.657C144.104 208.387 138.699 215.94 138.699 212.222C138.699 201.309 152.622 192.426 157.641 183.005C159.404 179.697 159.905 175.117 162.171 172.095C164.765 168.636 163.649 180.305 164.477 184.397C166.478 194.282 168.111 206.802 174.113 215.591C176.336 218.846 176.409 216.462 177.737 213.394C182.705 201.909 185.733 189.968 189.267 178.099C192.19 168.281 195.289 158.425 198.985 148.809C200.251 145.514 202.412 141.824 203.761 147.491C206.962 160.93 206.726 175.421 206.726 189.083C206.726 197.13 208.241 208.484 203.761 216.03C198.901 224.219 183.053 194.755 182.513 193.257C176.513 176.612 180.043 160.618 180.043 143.756C180.043 125.727 174.033 179.442 169.748 197.065C168.916 200.487 161.989 219.838 169.666 219.838C174.422 219.838 173.289 224.54 177.078 226.135C179.249 227.05 184.56 224.266 186.631 223.792C192.606 222.426 198.806 220.919 204.914 220.131C211.101 219.332 217.969 218.52 224.186 218.52C230.097 218.52 237.469 219.796 242.634 216.616C252.265 210.688 260.605 203.074 262.729 192.451C266.379 174.199 255.85 155.654 259.764 137.093C263.048 121.524 262.822 106.824 259.353 91.3996C258.076 85.726 258.375 79.9541 257.211 74.2647C256.463 70.6038 254.128 67.2561 252.682 63.7201C251.023 59.6635 247.768 56.4251 246.834 51.8575C246.431 49.8866 248.055 44.4529 246.093 43.2901C242.152 40.954 255.744 46.667 257.788 50.4662C264.82 63.5392 255.54 79.2243 248.893 90.7405C237.978 109.654 228.731 129.242 224.515 150.273C222.673 159.465 221.434 171.464 225.998 180.296C228.681 185.488 231.928 189.224 231.928 195.088C231.928 197.044 231.873 198.358 230.775 200.067C228.241 204.009 230.54 190.982 230.775 186.447C231.729 167.997 233.41 112.619 233.41 131.088C233.41 145.051 236.308 158.377 237.528 172.241C238.685 185.384 236.741 195.444 226.327 205.046C221.209 209.766 220.068 210.462 220.068 202.703" stroke="#FFEF40" stroke-width="36" stroke-linecap="round"/>
<path d="M133.338 237.284C129.937 233.894 130.744 228.626 129.062 224.58C127.863 221.697 129.761 219.414 130.895 216.643" stroke="#FFEF40" stroke-width="40" stroke-linecap="round"/>
<path d="M178.788 381.692C178.603 382.31 177.802 384.28 177.005 384.39C176.581 384.447 176.733 377.018 176.75 376.606C176.968 371.318 178.357 366.182 179.159 360.956C179.924 355.965 180.114 350.936 180.015 345.903C179.882 339.087 177.735 332.628 177.12 325.888C177.056 325.182 174.441 331.097 174.341 331.366C170.884 340.68 167.116 349.898 163.642 359.206C161.723 364.346 159.793 369.604 158.662 374.938C158.251 376.877 158.253 377.687 158.616 375.103C160.454 362.027 164.7 349.125 165.355 335.937C165.656 329.893 165.724 323.578 164.614 317.59C164.304 315.914 163.638 314.262 163.387 312.586C163.23 311.538 162.505 308.927 160.862 310.506C156.747 314.462 154.301 320.318 152.015 325.188C148.912 331.802 145.99 338.571 143.863 345.492C143.719 345.96 143.105 349.888 142.335 350.104C140.93 350.498 140.264 345.599 140.204 345.121C138.989 335.401 139.47 326.029 141.223 316.416C141.788 313.317 142.816 309.827 141.501 306.82C140.116 303.653 141.319 300.064 140.528 296.812C139.448 292.368 139.91 288.222 140.019 283.757C140.097 280.576 140.019 277.385 140.019 274.203C140.019 272.429 140.986 269.274 138.351 269.014C135.774 268.759 137.429 267.023 136.058 266.048C135.561 265.695 134.815 263.674 136.221 264.277C142.277 266.877 147.768 267.16 154.401 267.16C164.96 267.16 175.779 266.901 186.292 265.966C194.117 265.27 201.783 264.306 209.637 263.824C214.892 263.502 220.05 262.438 225.292 262.053C230.643 261.661 235.902 262.191 241.226 261.395C245.553 260.747 249.776 260.529 254.149 260.488C258.671 260.447 263.033 259.584 267.489 259.088C271.531 258.639 275.125 257.587 279.023 256.617C282.313 255.798 285.757 255.454 288.935 254.476C291.292 253.75 290.39 256.03 290.765 257.585C291.985 262.647 293.404 267.638 294.47 272.741C297.654 287.982 303.404 302.682 305.703 318.104C306.454 323.144 306.705 328.421 306.768 333.507C306.814 337.194 306.751 340.916 305.934 344.544C304.591 350.516 302.345 356.269 299.658 361.883C297.851 365.658 295.823 369.343 293.938 373.085C292.77 375.403 291.878 377.93 290.417 380.127C288.373 383.203 287.274 386.744 285.091 389.764C284.956 389.95 283.869 391.902 283.794 391.885C282.799 391.664 280.488 393.718 279.787 394.129C277.274 395.606 274.5 397.026 271.589 397.774C265.047 399.455 258.095 400.257 251.417 401.419C245.265 402.489 239.235 403.209 232.958 403.746C227.779 404.189 222.547 404.495 217.349 404.652C212.648 404.794 207.878 404.374 203.198 404.858C195.969 405.605 188.559 404.915 181.289 405.496C173.808 406.094 166.299 406.526 158.778 406.526C156.09 406.526 153.281 406.747 150.626 406.34C148.29 405.982 145.416 406.36 143.192 405.599C141.192 404.915 139.02 404.258 136.869 403.911C135.081 403.622 132.951 403.132 131.264 404.014C130.207 404.567 131.734 404.862 132.307 404.467C134.764 402.767 135.991 397.222 136.661 394.809C138.302 388.897 139.523 382.607 138.583 376.503C137.711 370.842 134.104 366.012 134.183 360.112C134.224 357.012 135.353 353.527 135.85 350.434C136.117 348.771 136.253 353.779 136.267 355.458C136.295 358.853 136.397 362.282 136.174 365.672C135.685 373.11 132.579 380.254 131.658 387.622C131.315 390.365 131.629 392.203 133.349 394.582C134.716 396.473 136.842 396.76 139.139 396.024C144.426 394.328 149.057 390.545 152.988 387.108C158.436 382.344 163.704 377.176 168.274 371.726C170.79 368.724 173.241 365.569 175.129 362.212C175.897 360.846 175.481 362.31 175.384 363.221C174.879 367.928 172.926 372.471 170.867 376.791C170.351 377.874 167.702 384.772 165.958 384.966C165.904 384.972 165.863 378.099 165.865 377.862C165.952 366.868 166.872 355.889 167.532 344.915C168.396 330.552 169.521 316.184 169.617 301.796C169.657 295.776 170.011 289.606 169.524 283.593C169.03 277.485 162.02 289.289 161.302 290.45C161.119 290.746 158.259 295.466 159.357 294.815C162.588 292.9 165.546 290.574 168.621 288.473C176.051 283.396 183.719 279.522 193.332 279.845C201.253 280.111 209.07 281.552 216.955 282.192C225.485 282.885 234.239 283.336 242.801 282.934C248.234 282.679 253.795 282.066 258.967 280.504C262.036 279.577 264.999 278.415 268.091 277.539C270.872 276.75 273.573 275.338 276.336 274.656C277.622 274.338 276.088 277.07 275.503 278.136C272.515 283.571 268.187 288.02 262.996 291.891C258.53 295.222 253.786 297.686 247.78 297.41C244.112 297.241 240.544 296.356 236.965 295.701C231.007 294.609 225.063 293.83 218.993 293.415C208.365 292.688 198.464 293.387 188.422 296.73C182.421 298.728 175.617 301.838 171.562 306.449C170.773 307.347 169.524 309.195 170.126 310.444C170.616 311.46 173.522 311.311 174.434 311.433C183.982 312.709 192.688 317.518 202.596 317.054C209.63 316.725 216.72 313.796 223.37 311.968C234.294 308.965 245.295 306.18 256.211 303.155C262.353 301.453 268.314 299.297 274.46 297.616C276.039 297.184 276.192 297.142 276.985 298.295C278.172 300.023 281.175 299.629 281.547 301.549C282.497 306.448 280.856 311.054 278.235 315.345C273.16 323.654 266.778 331.109 262.163 339.685C258.663 346.188 255.412 352.767 251.532 359.103C247.243 366.107 244.276 375.029 236.386 379.612C227.619 384.705 215.028 385.054 204.958 384.287C201.957 384.058 197.811 384.196 199.215 380.868C201.702 374.97 201.873 368.58 201.299 362.377C200.817 357.165 200.098 352.007 200.049 346.768C200.026 344.393 200.141 337.27 200.049 339.643C199.727 347.934 195.557 355.398 193.911 363.448C192.548 370.114 193.465 376.571 200.072 380.683C207.282 385.171 213.98 379.392 217.835 374.073C226.759 361.761 225.954 344.522 221.633 330.954C219.883 325.457 217.512 318.379 209.706 320.864C200.546 323.78 188.613 331.994 186.014 340.714C183.352 349.644 194.299 353.216 202.434 351.628C214.69 349.236 223.872 338.952 225.64 328.297C225.663 328.159 225.92 325.114 226.219 325.147C226.684 325.198 225.944 330.401 225.895 330.748C225.173 335.806 222.358 341.832 226.312 346.439C227.846 348.227 231.001 349.086 233.445 348.869C239.13 348.363 242.566 343.266 245.048 339.314C248.669 333.548 251.041 327.518 252.273 321.008C252.598 319.292 252.424 316.99 253.223 315.366C253.722 314.351 254.082 315.361 254.149 315.963C254.535 319.394 253.135 322.427 251.092 325.27C247.371 330.45 242.778 335.086 239.049 340.261C236.821 343.354 233.846 348.093 235.02 351.957C236.191 355.814 241.971 356.479 245.673 356.694C252.838 357.108 259.517 354.737 265.683 351.669C274.824 347.121 280.945 339.709 287.175 332.478C287.25 332.391 288.204 331.011 288.217 331.016C289.174 331.356 287.86 335.368 287.731 335.772C285.945 341.366 282.454 346.307 281.13 352.06C279.983 357.049 277.268 362.053 273.812 366.104C270.702 369.749 266.649 372.684 263.228 376.091C261.865 377.448 259.771 379.307 257.994 380.209C256.613 380.911 255.44 382.377 253.733 382.433C252.039 382.489 250.332 382.433 248.637 382.433C246.621 382.433 245.071 382.987 245.071 380.951" stroke="#33CAE4" stroke-width="36" stroke-linecap="round"/>
<path d="M102.724 258.072C101.829 265.233 88.8839 263.525 83.6434 263.525C77.1067 263.525 70.5699 263.525 64.0332 263.525C60.6584 263.525 55.7898 262.751 52.638 263.828C48.6186 265.203 42.3622 264.131 37.9871 264.131C35.3001 264.131 33.2295 263.571 31.8542 265.949C30.0278 269.106 27.746 272.311 26.4027 275.643C20.3988 290.534 24.3584 305.719 24.3584 321.084C24.3584 336.758 20.9512 352.042 20.9512 367.704C20.9512 377.033 22.6837 385.509 26.4027 394.262C27.8356 397.634 27.0841 402.026 27.0841 405.605C27.0841 409.277 29.7868 412.573 33.8985 412.573C37.7905 412.573 42.1473 411.158 46.0129 410.621C50.8575 409.948 55.7944 408.978 60.626 408.197C64.0024 407.651 67.8188 407.594 71.0747 406.783C75.3034 405.731 79.6271 404.099 83.9463 403.485C87.2886 403.009 89.6563 402.273 93.1835 402.273C97.3186 402.273 95.9959 398.628 96.4393 395.473C97.8084 385.735 95.506 375.674 96.7422 365.92C97.4188 360.581 98.0474 355.219 98.635 349.864C99.3606 343.251 100.296 336.443 100.641 329.836C100.962 323.703 100.586 317.529 100.679 311.39C100.772 305.319 102.042 299.295 102.042 293.214C102.042 289.321 100.568 286.335 99.6572 282.611C98.7969 279.092 97.9064 278.93 93.6 279.682C86.4992 280.922 79.59 282.581 72.3997 283.486C63.8595 284.561 55.2132 284.875 46.6944 286.078C44.3412 286.41 27.0841 288.433 27.0841 291.16C27.0841 296.718 27.8883 302.08 28.2956 307.62C29.3683 322.214 29.2983 336.841 29.9613 351.446C30.6683 367.021 32.3482 383.281 38.9714 397.863C39.2579 398.494 40.4696 402.86 41.5457 403.081C43.5781 403.498 46.7816 397.235 47.6029 396.18C51.1505 391.624 55.0145 387.307 58.3545 382.615C62.5034 376.787 63.7037 371.459 64.5632 364.708C64.8778 362.237 65.177 359.763 65.5853 357.303C65.6143 357.128 66.2159 352.091 66.9861 354.644C69.3349 362.428 69.8197 370.858 70.6961 378.845C71.1588 383.062 71.6307 387.587 73.4219 391.569C74.0924 393.059 75.8956 384.752 76.1476 383.793C77.3014 379.405 78.2111 374.952 79.5169 370.599C79.5591 370.458 80.9099 365.42 79.5548 366.054C77.3347 367.093 75.9583 369.915 73.8004 371.238C71.2299 372.814 66.9601 374.132 63.9953 372.551C58.1169 369.415 67.4939 359.631 69.5982 356.865C71.3492 354.564 73.2896 352.083 74.6333 349.561C75.6058 347.736 75.4104 345.66 75.504 343.704C75.7422 338.727 76.1109 333.817 76.1476 328.826C76.2223 318.671 77.5516 307.816 79.8955 297.859C80.215 296.501 82.7643 288.079 79.2519 289.814C72.3728 293.212 66.2508 297.835 59.4145 301.359C51.0046 305.695 40.49 309.621 35.8671 317.786C30.8509 326.645 37.7086 333.364 39.9936 341.617C41.42 346.77 42.0757 352.141 42.0757 357.437C42.0757 357.808 41.8984 360.75 42.1514 359.625C43.4678 353.773 46.4448 348.079 48.3601 342.358C50.9765 334.543 53.8681 326.778 56.0831 318.863C56.7748 316.391 57.4189 313.899 57.6731 311.357C57.6818 311.269 57.6068 308.268 57.7866 310.347C58.682 320.696 57.9238 329.867 53.6223 339.766C49.7909 348.583 41.5247 356.431 39.5014 365.785C39.4552 365.999 46.1069 361.364 46.9215 360.77C50.1512 358.415 53.6763 356.613 56.3859 353.802" stroke="#FFEF40" stroke-width="36" stroke-linecap="round"/>
<path d="M334.956 256.627C333.144 255.309 330.365 255.323 328.543 253.851C327.628 253.111 326.348 252.436 325.532 251.62C325.082 251.17 327.594 251.273 327.707 251.273C329.826 251.273 331.945 251.273 334.064 251.273C337.365 251.273 340.648 250.826 343.878 250.826C348.997 250.826 355.238 250.487 360.161 249.141C361.88 248.67 362.985 248.141 363.061 250.033C363.155 252.373 363.677 255.273 364.315 257.545C366.538 265.451 363.061 274.72 363.061 282.732C363.061 292.713 363.045 303.018 364.176 312.951C365.891 328.005 363.084 343.355 362.029 358.367C361.541 365.306 362.413 371.713 363.089 378.621C363.514 382.973 363.563 387.326 363.563 391.735C363.563 394.633 363.061 397.404 363.061 400.312C363.061 405.282 365.168 390.531 366.825 385.785C368.31 381.529 368.898 375.399 368.052 370.886C367.41 367.464 366.768 370.203 366.574 372.274C366.062 377.739 365.57 383.128 365.57 388.611C365.57 390.77 366.072 392.813 366.072 394.958C366.072 396.47 367.04 397.979 366.462 399.519C364.988 403.452 357.682 399.866 354.529 399.866C345.328 399.866 336.127 399.866 326.926 399.866C324.882 399.866 321.993 400.698 323.19 398.28C325.124 394.372 327.585 390.677 329.408 386.727C331.187 382.87 331.868 378.598 332.447 374.481C332.97 370.759 334.454 367.24 334.454 363.474C334.454 362.52 334.65 363.717 335.179 362.978C335.97 361.873 335.983 359.672 336.35 358.367C336.786 356.818 336.462 362.02 336.462 362.482C336.462 367.033 336.434 371.524 338.358 375.819C339.053 377.373 340.738 380.565 342.373 381.571C343.572 382.309 344.732 383.134 345.997 383.777C348.759 385.181 349.51 385.516 349.51 382.29C349.51 376.116 348.318 370.552 346.22 364.664C344.747 360.527 342.519 356.574 341.257 352.393C340.549 350.045 340.328 347.986 340.504 345.55C340.768 341.922 342.069 338.393 342.484 334.767C343.054 329.785 342.986 324.793 342.986 319.793C342.986 311.92 342.398 303.846 343.097 295.995C344.023 285.605 347.956 275.234 347.503 264.759C347.413 262.688 343.693 261.413 341.871 261.189C337.141 260.607 332.159 260.824 328.487 263.792C324.468 267.041 325.667 271.001 326.703 274.947C327.904 279.523 330.077 283.713 331.053 288.309C332.715 296.144 334.341 303.367 334.454 311.414C334.57 319.626 335.87 327.954 337.214 336.081C337.899 340.218 337.619 344.567 337.995 348.748C338.205 351.078 338.469 353.295 338.469 355.665C338.469 360.325 337.967 364.883 337.967 369.523" stroke="#FFEF40" stroke-width="36" stroke-linecap="round"/>
<path d="M365.519 354.249C364.547 355.114 365.135 358.317 365.198 359.48C365.273 360.832 365.517 362.205 365.783 363.537C365.887 364.056 366.029 365.041 366.349 363.822C366.815 362.045 366.516 360.049 366.537 358.239C366.554 356.753 366.677 355.094 367.084 353.646C367.356 352.677 368.033 349.847 368.234 350.829C369.104 355.081 368.54 359.599 368.913 363.906" stroke="#FFEF40" stroke-width="40" stroke-linecap="round"/>
<path d="M324.791 399.816C325.742 399.605 326.07 396.826 326.149 396.195C326.453 393.76 327.333 391.465 327.488 388.986C327.849 383.196 327.289 377.504 328.525 371.752C328.993 369.571 329.256 366.779 330.75 364.945C332.634 362.632 334.265 360.17 335.633 357.585C337.649 353.777 337.495 348.581 338.197 344.459C338.528 342.517 338.678 340.551 339.121 338.624C339.637 336.382 339.352 340.782 339.31 341.24C338.849 346.245 337.896 351.19 337.349 356.177C337.275 356.851 336.88 360.976 335.973 359.161C334.388 355.992 333.983 351.992 333.955 348.583C333.933 345.889 333.496 342.805 334.03 340.133C334.387 338.35 335.74 335.501 337.688 334.634" stroke="#FFEF40" stroke-width="40" stroke-linecap="round"/>
<path fill-rule="evenodd" clip-rule="evenodd" d="M192.612 0.707672C192.612 1.14006 188.898 1.41534 183.061 1.41534C177.225 1.41534 173.51 1.69063 173.51 2.12302C173.51 2.54267 170.592 2.83069 166.347 2.83069C159.715 2.83069 159.184 2.93542 159.184 4.24603C159.184 5.34717 158.653 5.66138 156.796 5.66138C155.483 5.66138 154.408 5.97983 154.408 6.36905C154.408 6.75827 153.334 7.07672 152.02 7.07672C150.707 7.07672 149.633 7.39517 149.633 7.78439C149.633 8.17361 148.916 8.49206 148.041 8.49206C147.165 8.49206 146.449 8.81052 146.449 9.19974C146.449 9.58895 145.9 9.90741 145.229 9.90741C143.223 9.90741 138.49 14.6134 138.49 16.6069C138.49 17.5927 138.132 18.3995 137.694 18.3995C137.256 18.3995 136.898 19.3548 136.898 20.5225C136.898 21.6901 136.54 22.6455 136.102 22.6455C135.664 22.6455 135.306 23.2824 135.306 24.0608C135.306 24.8393 134.948 25.4762 134.51 25.4762C134.072 25.4762 133.714 26.4315 133.714 27.5992C133.714 28.7669 133.356 29.7222 132.918 29.7222C132.481 29.7222 132.122 30.2891 132.122 30.9812C132.122 31.674 131.406 32.6994 130.531 33.2606C129.655 33.8218 128.939 34.8472 128.939 35.54C128.939 36.2321 128.581 36.7989 128.143 36.7989C127.705 36.7989 127.347 38.3912 127.347 40.3373C127.347 42.2834 126.989 43.8757 126.551 43.8757C126.113 43.8757 125.755 45.1495 125.755 46.7063C125.755 48.2632 125.397 49.537 124.959 49.537C124.473 49.537 124.163 52.8397 124.163 58.0291C124.163 63.2185 123.854 66.5212 123.367 66.5212C122.847 66.5212 122.571 79.2593 122.571 103.32C122.571 127.381 122.296 140.119 121.776 140.119C121.338 140.119 120.98 141.074 120.98 142.242C120.98 143.41 120.621 144.365 120.184 144.365C119.701 144.365 119.388 147.431 119.388 152.149C119.388 156.868 119.074 159.934 118.592 159.934C118.154 159.934 117.796 160.889 117.796 162.057C117.796 163.225 117.438 164.18 117 164.18C116.507 164.18 116.204 167.954 116.204 174.087C116.204 180.221 115.901 183.995 115.408 183.995C114.931 183.995 114.612 186.825 114.612 191.071C114.612 195.317 114.294 198.148 113.816 198.148C113.379 198.148 113.02 199.104 113.02 200.271C113.02 201.439 112.662 202.394 112.224 202.394C111.714 202.394 111.429 208.999 111.429 220.794C111.429 237.96 111.334 239.193 110.013 239.193C109.233 239.193 108.08 239.83 107.449 240.608C106.495 241.785 105.388 242.024 100.906 242.024C97.8391 242.024 95.5102 241.718 95.5102 241.316C95.5102 240.861 87.551 240.608 73.2245 240.608C58.898 240.608 50.9388 240.861 50.9388 241.316C50.9388 241.763 45.3673 242.024 35.8163 242.024C26.2653 242.024 20.6939 242.284 20.6939 242.731C20.6939 243.136 18.3061 243.439 15.1224 243.439C11.9388 243.439 9.55102 243.743 9.55102 244.147C9.55102 244.536 8.83469 244.854 7.95918 244.854C6.51857 244.854 6.36735 245.327 6.36735 249.808C6.36735 252.639 6.0259 254.762 5.57143 254.762C5.13367 254.762 4.77551 255.399 4.77551 256.177C4.77551 256.956 4.41735 257.593 3.97959 257.593C3.49727 257.593 3.18367 260.659 3.18367 265.377C3.18367 270.095 2.87008 273.161 2.38775 273.161C1.91578 273.161 1.59184 275.756 1.59184 279.53C1.59184 283.304 1.2679 285.899 0.795918 285.899C0.272204 285.899 0 304.299 0 339.683C0 375.066 0.272204 393.466 0.795918 393.466C1.23367 393.466 1.59184 394.421 1.59184 395.589C1.59184 396.756 1.95 397.712 2.38775 397.712C2.88043 397.712 3.18367 401.486 3.18367 407.619C3.18367 413.752 3.48692 417.526 3.97959 417.526C4.41735 417.526 4.77551 418.163 4.77551 418.942C4.77551 419.72 5.13367 420.357 5.57143 420.357C6.00918 420.357 6.36735 421.312 6.36735 422.48C6.36735 423.648 6.72551 424.603 7.16327 424.603C7.60102 424.603 7.95918 425.559 7.95918 426.726C7.95918 427.894 8.31735 428.849 8.7551 428.849C9.19286 428.849 9.55102 429.486 9.55102 430.265C9.55102 431.647 10.0819 431.68 32.6327 431.68C47.4901 431.68 55.7143 431.428 55.7143 430.972C55.7143 430.579 57.837 430.265 60.4898 430.265C63.1426 430.265 65.2653 429.95 65.2653 429.557C65.2653 429.168 66.3398 428.849 67.6531 428.849C68.9663 428.849 70.0408 428.531 70.0408 428.142C70.0408 427.752 71.4735 427.434 73.2245 427.434C74.9755 427.434 76.4082 427.115 76.4082 426.726C76.4082 426.333 78.5309 426.018 81.1837 426.018C83.8365 426.018 85.9592 425.704 85.9592 425.311C85.9592 424.878 89.6737 424.603 95.5102 424.603H105.061V478.386V532.169H147.245C188.898 532.169 189.429 532.187 189.429 533.585C189.429 534.892 189.959 535 196.416 535C202.49 535 203.554 534.815 204.551 533.585C205.225 532.754 206.612 532.169 207.911 532.169C209.127 532.169 210.122 531.851 210.122 531.462C210.122 531.072 211.913 530.754 214.102 530.754C216.291 530.754 218.082 530.435 218.082 530.046C218.082 529.586 229.755 529.339 251.51 529.339H284.939V489.709C284.939 463.761 285.213 450.079 285.735 450.079C286.189 450.079 286.531 447.956 286.531 445.126C286.531 442.295 286.872 440.172 287.327 440.172C287.764 440.172 288.122 439.217 288.122 438.049C288.122 436.881 288.481 435.926 288.918 435.926C289.356 435.926 289.714 434.971 289.714 433.803C289.714 432.635 290.072 431.68 290.51 431.68C290.948 431.68 291.306 430.725 291.306 429.557C291.306 428.389 291.664 427.434 292.102 427.434C292.54 427.434 292.898 426.16 292.898 424.603C292.898 423.046 293.256 421.772 293.694 421.772C294.132 421.772 294.49 421.272 294.49 420.661C294.49 418.669 296.647 417.526 300.403 417.526C302.404 417.526 304.041 417.845 304.041 418.234C304.041 418.654 306.959 418.942 311.204 418.942C315.449 418.942 318.367 419.23 318.367 419.649C318.367 420.088 322.612 420.357 329.51 420.357C336.408 420.357 340.653 420.627 340.653 421.065C340.653 421.454 341.728 421.772 343.041 421.772C344.354 421.772 345.429 422.091 345.429 422.48C345.429 422.909 348.877 423.188 354.184 423.188C359.49 423.188 362.939 423.467 362.939 423.895C362.939 424.336 367.449 424.603 374.878 424.603H386.816V422.48C386.816 421.312 387.174 420.357 387.612 420.357C388.05 420.357 388.408 419.083 388.408 417.526C388.408 415.97 388.766 414.696 389.204 414.696C389.728 414.696 390 396.296 390 360.913C390 325.529 389.728 307.13 389.204 307.13C388.722 307.13 388.408 304.063 388.408 299.345C388.408 294.627 388.095 291.561 387.612 291.561C387.104 291.561 386.816 285.664 386.816 275.284C386.816 264.905 386.528 259.008 386.02 259.008C385.513 259.008 385.224 253.111 385.224 242.731V226.455H365.327C352.592 226.455 345.429 226.71 345.429 227.163C345.429 227.552 344.712 227.87 343.837 227.87C342.961 227.87 342.245 228.189 342.245 228.578C342.245 228.967 340.812 229.286 339.061 229.286C337.31 229.286 335.878 229.604 335.878 229.993C335.878 230.433 331.481 230.701 324.28 230.701C312.266 230.701 310.408 230.281 310.408 227.567C310.408 226.679 309.444 226.455 305.633 226.455H300.857V213.009C300.857 204.517 301.15 199.563 301.653 199.563C302.091 199.563 302.449 198.29 302.449 196.733C302.449 195.176 302.807 193.902 303.245 193.902C303.744 193.902 304.041 189.42 304.041 181.872C304.041 174.323 304.338 169.841 304.837 169.841C305.358 169.841 305.633 155.452 305.633 128.089C305.633 100.725 305.358 86.336 304.837 86.336C304.359 86.336 304.041 83.5053 304.041 79.2593C304.041 75.0132 303.722 72.1825 303.245 72.1825C302.747 72.1825 302.449 67.9365 302.449 60.8598C302.449 53.7831 302.151 49.537 301.653 49.537C301.215 49.537 300.857 47.9448 300.857 45.9987C300.857 44.0526 300.499 42.4603 300.061 42.4603C299.623 42.4603 299.265 41.1865 299.265 39.6296C299.265 38.0728 298.907 36.7989 298.469 36.7989C298.015 36.7989 297.673 34.6759 297.673 31.8452C297.673 29.0145 297.332 26.8915 296.878 26.8915C296.44 26.8915 296.082 26.2546 296.082 25.4762C296.082 24.6978 295.723 24.0608 295.286 24.0608C294.848 24.0608 294.49 23.5584 294.49 22.9441C294.49 22.3292 293.057 20.6032 291.306 19.1071C289.555 17.6111 288.122 16.021 288.122 15.5737C288.122 14.4613 286.087 12.7381 284.773 12.7381C284.182 12.7381 283.182 12.1012 282.551 11.3228C281.877 10.4919 280.49 9.90741 279.191 9.90741C277.51 9.90741 276.98 9.56772 276.98 8.49206C276.98 7.39093 276.449 7.07672 274.592 7.07672C273.279 7.07672 272.204 6.75827 272.204 6.36905C272.204 5.97983 271.488 5.66138 270.612 5.66138C269.737 5.66138 269.02 5.34292 269.02 4.9537C269.02 4.56448 267.946 4.24603 266.633 4.24603C265.319 4.24603 264.245 3.92758 264.245 3.53836C264.245 3.14914 262.454 2.83069 260.265 2.83069C258.077 2.83069 256.286 2.51224 256.286 2.12302C256.286 1.7338 254.853 1.41534 253.102 1.41534C251.351 1.41534 249.918 1.09689 249.918 0.707672C249.918 0.249101 239.836 0 221.265 0C202.694 0 192.612 0.249101 192.612 0.707672ZM203.755 12.0304C203.755 12.4628 200.041 12.7381 194.204 12.7381C188.368 12.7381 184.653 13.0134 184.653 13.4458C184.653 13.8583 182 14.1534 178.286 14.1534C172.449 14.1534 171.918 14.2716 171.918 15.5688C171.918 16.7485 171.387 16.9841 168.735 16.9841C166.984 16.9841 165.551 17.3026 165.551 17.6918C165.551 18.081 164.477 18.3995 163.163 18.3995C161.85 18.3995 160.776 18.7179 160.776 19.1071C160.776 19.4964 160.059 19.8148 159.184 19.8148C158.308 19.8148 157.592 20.1333 157.592 20.5225C157.592 20.9117 156.876 21.2302 156 21.2302C155.004 21.2302 154.408 21.7022 154.408 22.4891C154.408 23.1819 153.692 24.2073 152.816 24.7685C151.882 25.3679 151.224 26.6007 151.224 27.7556C151.224 28.8369 150.866 29.7222 150.429 29.7222C149.991 29.7222 149.633 30.3591 149.633 31.1376C149.633 31.916 149.274 32.5529 148.837 32.5529C148.399 32.5529 148.041 33.1898 148.041 33.9683C148.041 34.7467 147.683 35.3836 147.245 35.3836C146.807 35.3836 146.449 36.339 146.449 37.5066C146.449 38.6743 146.091 39.6296 145.653 39.6296C145.215 39.6296 144.857 40.1965 144.857 40.8886C144.857 41.5814 144.141 42.6068 143.265 43.168C142.39 43.7292 141.673 44.7546 141.673 45.4474C141.673 46.1395 141.315 46.7063 140.878 46.7063C140.44 46.7063 140.082 48.2986 140.082 50.2447C140.082 52.1908 139.723 53.7831 139.286 53.7831C138.848 53.7831 138.49 55.0569 138.49 56.6138C138.49 58.1706 138.132 59.4444 137.694 59.4444C137.208 59.4444 136.898 62.7471 136.898 67.9365C136.898 73.1259 136.588 76.4286 136.102 76.4286C135.582 76.4286 135.306 89.1667 135.306 113.228C135.306 137.288 135.031 150.026 134.51 150.026C134.072 150.026 133.714 150.982 133.714 152.149C133.714 153.317 133.356 154.272 132.918 154.272C132.436 154.272 132.122 157.339 132.122 162.057C132.122 166.775 131.809 169.841 131.327 169.841C130.889 169.841 130.531 170.797 130.531 171.964C130.531 173.132 130.172 174.087 129.735 174.087C129.242 174.087 128.939 177.861 128.939 183.995C128.939 190.128 128.636 193.902 128.143 193.902C127.665 193.902 127.347 196.733 127.347 200.979C127.347 205.225 127.029 208.056 126.551 208.056C126.113 208.056 125.755 209.011 125.755 210.179C125.755 211.346 125.397 212.302 124.959 212.302C124.458 212.302 124.163 217.02 124.163 225.04C124.163 237.306 124.222 237.778 125.755 237.778C126.816 237.778 127.347 238.25 127.347 239.193C127.347 240.359 127.878 240.608 130.355 240.608C132.45 240.608 133.711 241.038 134.51 242.024C135.383 243.099 136.571 243.439 139.462 243.439C141.553 243.439 143.265 243.758 143.265 244.147C143.265 244.608 156 244.854 179.878 244.854C203.755 244.854 216.49 244.608 216.49 244.147C216.49 243.734 219.143 243.439 222.857 243.439C226.572 243.439 229.224 243.144 229.224 242.731C229.224 242.312 232.143 242.024 236.388 242.024C240.632 242.024 243.551 241.736 243.551 241.316C243.551 240.878 247.796 240.608 254.694 240.608C261.592 240.608 265.837 240.339 265.837 239.901C265.837 239.512 266.553 239.193 267.429 239.193C268.304 239.193 269.02 238.875 269.02 238.485C269.02 238.096 270.095 237.778 271.408 237.778C272.721 237.778 273.796 237.459 273.796 237.07C273.796 236.681 275.15 236.362 276.804 236.362C278.899 236.362 280.16 235.933 280.959 234.947C281.59 234.169 282.948 233.532 283.977 233.532C288.047 233.532 288.122 233.111 288.122 210.583C288.122 197.104 288.406 189.656 288.918 189.656C289.356 189.656 289.714 188.382 289.714 186.825C289.714 185.269 290.072 183.995 290.51 183.995C291.009 183.995 291.306 179.513 291.306 171.964C291.306 164.416 291.603 159.934 292.102 159.934C292.621 159.934 292.898 148.847 292.898 128.089C292.898 107.33 292.621 96.2434 292.102 96.2434C291.624 96.2434 291.306 93.4127 291.306 89.1667C291.306 84.9206 290.988 82.0899 290.51 82.0899C290.013 82.0899 289.714 77.8439 289.714 70.7672C289.714 63.6905 289.416 59.4444 288.918 59.4444C288.481 59.4444 288.122 57.8522 288.122 55.9061C288.122 53.96 287.764 52.3677 287.327 52.3677C286.889 52.3677 286.531 51.0939 286.531 49.537C286.531 47.9802 286.172 46.7063 285.735 46.7063C285.28 46.7063 284.939 44.5833 284.939 41.7526C284.939 38.922 284.597 36.7989 284.143 36.7989C283.705 36.7989 283.347 36.162 283.347 35.3836C283.347 34.6052 282.989 33.9683 282.551 33.9683C282.113 33.9683 281.755 33.4658 281.755 32.8515C281.755 32.2366 280.322 30.5106 278.571 29.0145C276.82 27.5185 275.388 25.7925 275.388 25.1776C275.388 24.5633 274.75 24.0608 273.972 24.0608C273.193 24.0608 272.039 23.4239 271.408 22.6455C270.775 21.8649 269.348 21.2302 268.224 21.2302C267.101 21.2302 265.674 20.5954 265.041 19.8148C264.41 19.0364 263.256 18.3995 262.477 18.3995C261.699 18.3995 261.061 18.081 261.061 17.6918C261.061 17.3026 260.345 16.9841 259.469 16.9841C258.594 16.9841 257.878 16.6657 257.878 16.2765C257.878 15.8872 256.803 15.5688 255.49 15.5688C254.177 15.5688 253.102 15.2503 253.102 14.8611C253.102 14.4719 251.311 14.1534 249.122 14.1534C246.934 14.1534 245.143 13.835 245.143 13.4458C245.143 13.0565 243.71 12.7381 241.959 12.7381C240.208 12.7381 238.775 12.4196 238.775 12.0304C238.775 11.5803 232.408 11.3228 221.265 11.3228C210.122 11.3228 203.755 11.5803 203.755 12.0304ZM154.408 99.0741C154.408 99.8525 154.05 100.489 153.612 100.489C153.174 100.489 152.816 101.763 152.816 103.32C152.816 105.422 152.494 106.151 151.566 106.151C148.705 106.151 148.041 107.94 148.041 115.654V123.135H159.98H171.918V119.597C171.918 117.65 172.277 116.058 172.714 116.058C174.055 116.058 173.738 99.8829 172.373 98.67C171.532 97.9213 169.053 97.6587 162.822 97.6587C154.939 97.6587 154.408 97.7479 154.408 99.0741ZM208.73 105.124L205.347 108.241V115.688V123.135H214.557C224.065 123.135 226.041 122.596 226.041 120.001C226.041 119.361 226.716 118.889 227.633 118.889C229.092 118.889 229.224 118.417 229.224 113.228C229.224 108.038 229.092 107.566 227.633 107.566C226.306 107.566 226.041 107.094 226.041 104.735V101.905L219.077 101.956L212.112 102.007L208.73 105.124ZM240.367 173.789C240.367 174.404 238.935 176.13 237.184 177.626C235.406 179.145 234 181.017 234 181.867C234 183.652 232.251 185.41 230.475 185.41C229.787 185.41 229.224 185.912 229.224 186.527C229.224 187.142 227.792 188.868 226.041 190.364C224.268 191.878 222.857 193.756 222.857 194.601C222.857 195.489 221.21 197.544 218.878 199.563C216.144 201.931 214.898 203.578 214.898 204.825C214.898 205.984 214.457 206.64 213.678 206.64C212.093 206.64 206.939 211.223 206.939 212.632C206.939 213.229 206.301 213.717 205.523 213.717C204.744 213.717 203.59 214.354 202.959 215.132C202.04 216.267 200.899 216.548 197.212 216.548C194.676 216.548 192.612 216.23 192.612 215.84C192.612 215.451 191.896 215.132 191.02 215.132C190.145 215.132 189.429 214.814 189.429 214.425C189.429 214.035 188.712 213.717 187.837 213.717C186.961 213.717 186.245 213.398 186.245 213.009C186.245 212.62 185.607 212.302 184.829 212.302C184.05 212.302 182.896 211.665 182.265 210.886C181.634 210.108 180.634 209.471 180.043 209.471C178.729 209.471 176.694 207.748 176.694 206.635C176.694 206.188 175.261 204.598 173.51 203.102C171.707 201.562 170.327 199.714 170.327 198.842C170.327 197.994 169.252 196.408 167.939 195.317C166.626 194.227 165.551 192.953 165.551 192.487C165.551 192.02 164.477 190.747 163.163 189.656C161.85 188.566 160.776 187.164 160.776 186.542C160.776 185.588 159.645 185.41 153.612 185.41H146.449V191.779C146.449 197.097 146.655 198.148 147.699 198.148C149.168 198.148 151.224 199.811 151.224 200.998C151.224 201.454 152.299 202.719 153.612 203.81C154.926 204.9 156 206.302 156 206.924C156 207.547 156.358 208.056 156.796 208.056C157.234 208.056 157.592 208.692 157.592 209.471C157.592 210.249 157.95 210.886 158.388 210.886C158.826 210.886 159.184 211.523 159.184 212.302C159.184 213.117 159.715 213.717 160.434 213.717C161.882 213.717 163.959 215.374 163.959 216.529C163.959 217.705 167.68 220.794 169.097 220.794C169.796 220.794 170.327 221.404 170.327 222.209C170.327 223.285 170.857 223.624 172.538 223.624C173.837 223.624 175.224 224.209 175.898 225.04C176.572 225.87 177.959 226.455 179.258 226.455C180.474 226.455 181.469 226.773 181.469 227.163C181.469 227.552 183.26 227.87 185.449 227.87C187.638 227.87 189.429 228.189 189.429 228.578C189.429 229.018 193.813 229.286 200.99 229.286H212.552L216.113 226.12C218.071 224.379 219.673 222.468 219.673 221.874C219.673 221.266 220.369 220.794 221.265 220.794C222.326 220.794 222.857 220.322 222.857 219.378C222.857 218.563 223.388 217.963 224.108 217.963C225.881 217.963 227.633 216.207 227.633 214.43C227.633 213.546 229.288 211.484 231.612 209.471C233.801 207.575 235.592 205.526 235.592 204.917C235.592 204.308 235.95 203.81 236.388 203.81C236.826 203.81 237.184 203.314 237.184 202.709C237.184 202.103 239.333 199.733 241.959 197.44C245.327 194.502 246.735 192.74 246.735 191.464C246.735 190.128 247.15 189.656 248.327 189.656C249.387 189.656 249.918 189.184 249.918 188.241C249.918 187.297 250.449 186.825 251.51 186.825C252.996 186.825 253.102 186.353 253.102 179.749V172.672H246.735C241.465 172.672 240.367 172.864 240.367 173.789ZM356.571 238.485C356.571 238.875 355.855 239.193 354.98 239.193C354.104 239.193 353.388 239.512 353.388 239.901C353.388 240.29 351.955 240.608 350.204 240.608C348.453 240.608 347.02 240.927 347.02 241.316C347.02 241.764 341.184 242.024 331.102 242.024H315.184V245.562C315.184 247.508 315.542 249.101 315.98 249.101C316.417 249.101 316.776 250.693 316.776 252.639C316.776 254.585 317.134 256.177 317.571 256.177C318.014 256.177 318.367 258.065 318.367 260.423C318.367 262.782 318.721 264.669 319.163 264.669C319.618 264.669 319.959 266.792 319.959 269.623C319.959 272.454 320.301 274.577 320.755 274.577C321.21 274.577 321.551 276.7 321.551 279.53C321.551 282.361 321.892 284.484 322.347 284.484C322.867 284.484 323.143 297.458 323.143 321.991C323.143 346.524 322.867 359.497 322.347 359.497C321.892 359.497 321.551 361.62 321.551 364.451C321.551 367.282 321.21 369.405 320.755 369.405C320.317 369.405 319.959 370.36 319.959 371.528C319.959 372.695 319.601 373.651 319.163 373.651C318.709 373.651 318.367 375.774 318.367 378.604C318.367 381.435 318.026 383.558 317.571 383.558C317.134 383.558 316.776 384.832 316.776 386.389C316.776 387.946 316.417 389.22 315.98 389.22C315.542 389.22 315.184 389.856 315.184 390.635C315.184 391.413 314.826 392.05 314.388 392.05C313.95 392.05 313.592 393.006 313.592 394.173C313.592 395.341 313.234 396.296 312.796 396.296C312.358 396.296 312 396.933 312 397.712C312 398.49 311.642 399.127 311.204 399.127C310.766 399.127 310.408 400.082 310.408 401.25C310.408 402.418 310.05 403.373 309.612 403.373C309.174 403.373 308.816 404.01 308.816 404.788C308.816 405.968 309.347 406.204 312 406.204C313.751 406.204 315.184 406.522 315.184 406.911C315.184 407.331 318.102 407.619 322.347 407.619C326.592 407.619 329.51 407.907 329.51 408.327C329.51 408.765 333.755 409.034 340.653 409.034C347.551 409.034 351.796 409.304 351.796 409.742C351.796 410.131 352.87 410.45 354.184 410.45C355.497 410.45 356.571 410.768 356.571 411.157C356.571 411.585 359.906 411.865 364.985 411.865C374.519 411.865 375.673 411.374 375.673 407.315C375.673 405.926 376.032 404.788 376.469 404.788C376.991 404.788 377.265 389.692 377.265 360.913C377.265 332.134 376.991 317.037 376.469 317.037C375.987 317.037 375.673 313.971 375.673 309.253C375.673 304.535 375.36 301.468 374.878 301.468C374.37 301.468 374.082 295.571 374.082 285.192C374.082 274.812 373.793 268.915 373.286 268.915C372.78 268.915 372.49 263.254 372.49 253.347V237.778H364.531C359.755 237.778 356.571 238.061 356.571 238.485ZM291.306 246.978C291.306 247.367 289.873 247.685 288.122 247.685C286.371 247.685 284.939 248.004 284.939 248.393C284.939 248.782 283.864 249.101 282.551 249.101C281.238 249.101 280.163 249.419 280.163 249.808C280.163 250.197 279.447 250.516 278.571 250.516C277.696 250.516 276.98 250.834 276.98 251.224C276.98 251.662 272.735 251.931 265.837 251.931C258.939 251.931 254.694 252.201 254.694 252.639C254.694 253.059 251.775 253.347 247.531 253.347C243.286 253.347 240.367 253.635 240.367 254.054C240.367 254.467 237.715 254.762 234 254.762C230.285 254.762 227.633 255.057 227.633 255.47C227.633 255.934 211.183 256.177 179.878 256.177C148.572 256.177 132.122 255.934 132.122 255.47C132.122 255.08 130.69 254.762 128.939 254.762H125.755V301.468C125.755 332.134 125.482 348.175 124.959 348.175C124.521 348.175 124.163 349.13 124.163 350.298C124.163 351.465 123.805 352.421 123.367 352.421C122.87 352.421 122.571 356.667 122.571 363.743C122.571 370.82 122.273 375.066 121.776 375.066C121.265 375.066 120.98 381.907 120.98 394.173V413.28H151.224C170.857 413.28 181.469 413.032 181.469 412.573C181.469 412.127 186.776 411.865 195.796 411.865C204.816 411.865 210.122 411.603 210.122 411.157C210.122 410.701 218.878 410.45 234.796 410.45C250.714 410.45 259.469 410.199 259.469 409.742C259.469 409.353 260.902 409.034 262.653 409.034C264.404 409.034 265.837 408.716 265.837 408.327C265.837 407.938 267.628 407.619 269.816 407.619C272.005 407.619 273.796 407.301 273.796 406.911C273.796 406.522 275.229 406.204 276.98 406.204C278.731 406.204 280.163 405.885 280.163 405.496C280.163 405.107 281.159 404.788 282.375 404.788C283.674 404.788 285.061 404.204 285.735 403.373C286.366 402.595 287.724 401.958 288.753 401.958C290.819 401.958 292.898 400.464 292.898 398.98C292.898 398.454 293.614 397.565 294.49 397.004C295.365 396.443 296.082 395.417 296.082 394.725C296.082 394.032 296.44 393.466 296.878 393.466C297.315 393.466 297.673 392.51 297.673 391.343C297.673 390.175 298.032 389.22 298.469 389.22C298.907 389.22 299.265 388.583 299.265 387.804C299.265 387.026 299.623 386.389 300.061 386.389C300.499 386.389 300.857 385.434 300.857 384.266C300.857 383.098 301.215 382.143 301.653 382.143C302.091 382.143 302.449 381.506 302.449 380.728C302.449 379.949 302.807 379.312 303.245 379.312C303.683 379.312 304.041 378.038 304.041 376.481C304.041 374.925 304.399 373.651 304.837 373.651C305.291 373.651 305.633 371.528 305.633 368.697C305.633 365.866 305.974 363.743 306.429 363.743C306.866 363.743 307.224 362.788 307.224 361.62C307.224 360.453 307.583 359.497 308.02 359.497C308.475 359.497 308.816 357.374 308.816 354.544C308.816 351.713 309.158 349.59 309.612 349.59C310.13 349.59 310.408 339.918 310.408 321.991C310.408 304.063 310.13 294.392 309.612 294.392C309.158 294.392 308.816 292.269 308.816 289.438C308.816 286.607 308.475 284.484 308.02 284.484C307.566 284.484 307.224 282.361 307.224 279.53C307.224 276.7 306.883 274.577 306.429 274.577C305.986 274.577 305.633 272.689 305.633 270.331C305.633 267.972 305.279 266.085 304.837 266.085C304.399 266.085 304.041 264.492 304.041 262.546C304.041 260.6 303.683 259.008 303.245 259.008C302.79 259.008 302.449 256.885 302.449 254.054C302.449 251.224 302.108 249.101 301.653 249.101C301.215 249.101 300.857 248.464 300.857 247.685C300.857 246.427 300.326 246.27 296.082 246.27C293.429 246.27 291.306 246.584 291.306 246.978ZM62.0816 252.639C62.0816 253.086 56.5102 253.347 46.9592 253.347C37.4082 253.347 31.8367 253.607 31.8367 254.054C31.8367 254.454 29.5628 254.762 26.6068 254.762C20.0317 254.762 19.102 255.501 19.102 260.727C19.102 262.895 18.7439 264.669 18.3061 264.669C17.8684 264.669 17.5102 265.306 17.5102 266.085C17.5102 266.863 17.152 267.5 16.7143 267.5C16.232 267.5 15.9184 270.566 15.9184 275.284C15.9184 280.002 15.6048 283.069 15.1224 283.069C14.6505 283.069 14.3265 285.664 14.3265 289.438C14.3265 293.212 14.0026 295.807 13.5306 295.807C13.0085 295.807 12.7347 310.904 12.7347 339.683C12.7347 368.461 13.0085 383.558 13.5306 383.558C13.9684 383.558 14.3265 384.195 14.3265 384.974C14.3265 385.752 14.6847 386.389 15.1224 386.389C15.6175 386.389 15.9184 390.399 15.9184 397.004C15.9184 403.609 16.2192 407.619 16.7143 407.619C17.152 407.619 17.5102 408.256 17.5102 409.034C17.5102 409.813 17.8684 410.45 18.3061 410.45C18.7439 410.45 19.102 411.405 19.102 412.573C19.102 413.74 19.4602 414.696 19.898 414.696C20.3357 414.696 20.6939 415.515 20.6939 416.515C20.6939 419.963 22.0358 420.357 33.77 420.357C40.4406 420.357 44.5714 420.087 44.5714 419.649C44.5714 419.256 46.6941 418.942 49.3469 418.942C51.9997 418.942 54.1224 418.628 54.1224 418.234C54.1224 417.845 55.1969 417.526 56.5102 417.526C57.8235 417.526 58.898 417.208 58.898 416.819C58.898 416.43 60.3306 416.111 62.0816 416.111C63.8327 416.111 65.2653 415.793 65.2653 415.403C65.2653 415.01 67.388 414.696 70.0408 414.696C72.6936 414.696 74.8163 414.382 74.8163 413.988C74.8163 413.54 80.6528 413.28 90.7347 413.28H106.653V409.742C106.653 407.796 107.011 406.204 107.449 406.204C107.962 406.204 108.245 398.891 108.245 385.681C108.245 372.471 108.528 365.159 109.041 365.159C109.538 365.159 109.837 360.913 109.837 353.836C109.837 346.759 110.135 342.513 110.633 342.513C111.07 342.513 111.429 341.558 111.429 340.39C111.429 339.223 111.787 338.267 112.224 338.267C112.745 338.267 113.02 325.293 113.02 300.761C113.02 276.228 112.745 263.254 112.224 263.254C111.77 263.254 111.429 261.131 111.429 258.3V253.347H97.898C89.4079 253.347 84.3673 253.083 84.3673 252.639C84.3673 252.201 80.1227 251.931 73.2245 251.931C66.3263 251.931 62.0816 252.201 62.0816 252.639ZM276.98 419.649C276.98 420.039 275.547 420.357 273.796 420.357C272.045 420.357 270.612 420.676 270.612 421.065C270.612 421.521 261.857 421.772 245.939 421.772C230.02 421.772 221.265 422.024 221.265 422.48C221.265 422.924 216.225 423.188 207.735 423.188H194.204V472.017V520.847H196.592C197.905 520.847 198.98 520.528 198.98 520.139C198.98 519.75 200.412 519.431 202.163 519.431C203.914 519.431 205.347 519.113 205.347 518.724C205.347 518.263 217.021 518.016 238.775 518.016H272.204V479.094C272.204 453.618 272.479 440.172 273 440.172C273.454 440.172 273.796 438.049 273.796 435.218C273.796 432.388 274.137 430.265 274.592 430.265C275.03 430.265 275.388 429.309 275.388 428.142C275.388 426.974 275.746 426.018 276.184 426.018C276.621 426.018 276.98 425.063 276.98 423.895C276.98 422.728 277.338 421.772 277.776 421.772C278.213 421.772 278.571 421.136 278.571 420.357C278.571 419.579 278.213 418.942 277.776 418.942C277.338 418.942 276.98 419.26 276.98 419.649ZM119.388 426.018C119.388 426.797 119.03 427.434 118.592 427.434C118.069 427.434 117.796 443.475 117.796 474.14V520.847H149.633H181.469V472.725V424.603H150.429C119.919 424.603 119.388 424.627 119.388 426.018Z" fill="#222222"/>
</svg>
