<svg width="338" height="255" viewBox="0 0 338 255" fill="none" xmlns="http://www.w3.org/2000/svg">
<path d="M143 0.75L144.531 166.54L163.383 1.81824L147.576 166.86L183.543 5.01122L150.57 167.497L203.258 10.294L153.482 168.443L222.314 17.6086L156.279 169.688L240.5 26.875L158.931 171.219L257.618 37.9917L161.408 173.018L273.48 50.8368L163.683 175.067L287.913 65.2695L165.732 177.342L300.758 81.1319L167.531 179.819L311.875 98.25L169.062 182.471L321.141 116.436L170.307 185.268L328.456 135.492L171.253 188.18L333.739 155.207L171.89 191.174L336.932 175.367L172.21 194.219L338 195.75L172.21 197.281L336.932 216.133L171.89 200.326L333.739 236.293L171.253 203.32L328.456 256.008L170.307 206.232L321.141 275.064L169.062 209.029L311.875 293.25L167.531 211.681L300.758 310.368L165.732 214.158L287.913 326.23L163.683 216.433L273.48 340.663L161.408 218.482L257.618 353.508L158.931 220.281L240.5 364.625L156.279 221.812L222.314 373.891L153.482 223.057L203.258 381.206L150.57 224.003L183.543 386.489L147.576 224.64L163.383 389.682L144.531 224.96L143 390.75L141.469 224.96L122.617 389.682L138.424 224.64L102.457 386.489L135.43 224.003L82.7417 381.206L132.518 223.057L63.6864 373.891L129.721 221.812L45.5 364.625L127.069 220.281L28.3819 353.508L124.592 218.482L12.5195 340.663L122.317 216.433L-1.91324 326.23L120.268 214.158L-14.7583 310.368L118.469 211.681L-25.875 293.25L116.938 209.029L-35.1414 275.064L115.693 206.232L-42.456 256.008L114.747 203.32L-47.7388 236.293L114.11 200.326L-50.9318 216.133L113.79 197.281L-52 195.75L113.79 194.219L-50.9318 175.367L114.11 191.174L-47.7388 155.207L114.747 188.18L-42.456 135.492L115.693 185.268L-35.1414 116.436L116.938 182.471L-25.875 98.25L118.469 179.819L-14.7583 81.1319L120.268 177.342L-1.91324 65.2695L122.317 175.067L12.5195 50.8368L124.592 173.018L28.3819 37.9917L127.069 171.219L45.5 26.875L129.721 169.688L63.6864 17.6086L132.518 168.443L82.7417 10.294L135.43 167.497L102.457 5.01122L138.424 166.86L122.617 1.81824L141.469 166.54L143 0.75Z" fill="white" fill-opacity="0.1"/>
</svg>
